<?xml version="1.0" standalone="no"?><!DOCTYPE svg PUBLIC "-//W3C//DTD SVG 1.1//EN" "http://www.w3.org/Graphics/SVG/1.1/DTD/svg11.dtd"><svg t="1747810889572" class="icon" viewBox="0 0 1024 1024" version="1.1" xmlns="http://www.w3.org/2000/svg" p-id="1566" xmlns:xlink="http://www.w3.org/1999/xlink" width="200" height="200"><path d="M512 93.12A418.88 418.88 0 1 0 930.88 512 419.328 419.328 0 0 0 512 93.12z m0 753.92a335.104 335.104 0 1 1 335.104-335.104A335.488 335.488 0 0 1 512 847.04z" fill="#000000" fill-opacity="0.9" p-id="1567"></path><path d="M512 575.936a44.8 44.8 0 0 1-44.8-44.8V327.104a44.8 44.8 0 0 1 44.8-44.8 44.8 44.8 0 0 1 44.8 44.8V486.4h96a44.8 44.8 0 0 1 44.8 44.8 44.8 44.8 0 0 1-44.8 44.8z" fill="#000000" fill-opacity="0.9" p-id="1568"></path></svg>